<?xml version="1.0" encoding="utf-8"?>
<svg width="84px" height="36px" viewBox="0 0 84 36" version="1.1" xmlns:xlink="http://www.w3.org/1999/xlink" xmlns="http://www.w3.org/2000/svg">
  <desc>Created with Lunacy</desc>
  <g id="Gassol" fill="#00FF7F">
    <path d="M82.056 26.532L82.056 8.772L77.952 8.772L77.952 26.532L82.056 26.532ZM14.616 10.956Q12.552 9.396 9.36 9.396Q6.816 9.396 4.908 10.488Q3 11.58 1.956 13.548Q0.912 15.516 0.912 18.036Q0.912 20.556 1.956 22.524Q3 24.492 4.92 25.584Q6.84 26.676 9.408 26.676Q11.52 26.676 13.164 25.884Q14.808 25.092 15.864 23.82Q16.92 22.548 17.4 21.06L17.4 17.004L8.784 17.004L8.784 19.956L13.968 19.956Q13.512 21.444 12.408 22.248Q11.304 23.052 9.84 23.052Q7.56 23.052 6.324 21.756Q5.088 20.46 5.088 18.036Q5.088 15.804 6.264 14.496Q7.44 13.188 9.384 13.188Q10.632 13.188 11.52 13.728Q12.408 14.268 12.84 15.18L17.184 15.18Q16.68 12.516 14.616 10.956ZM27.432 13.668Q26.328 12.972 24.792 12.972Q23.136 12.972 21.828 13.8Q20.52 14.628 19.764 16.176Q19.008 17.724 19.008 19.836Q19.008 21.924 19.764 23.484Q20.52 25.044 21.828 25.872Q23.136 26.7 24.792 26.7Q26.328 26.7 27.432 26.004Q28.536 25.308 29.064 24.108L29.064 26.532L33.144 26.532L33.144 13.14L29.064 13.14L29.064 15.564Q28.536 14.364 27.432 13.668ZM40.848 12.972Q43.392 12.972 44.916 14.244Q46.44 15.516 46.824 17.604L42.984 17.604Q42.816 16.788 42.228 16.32Q41.64 15.852 40.752 15.852Q40.056 15.852 39.696 16.152Q39.336 16.452 39.336 17.004Q39.336 17.628 39.996 17.94Q40.656 18.252 42.072 18.564Q43.608 18.924 44.592 19.296Q45.576 19.668 46.296 20.508Q47.016 21.348 47.016 22.764Q47.016 23.916 46.392 24.804Q45.768 25.692 44.592 26.196Q43.416 26.7 41.808 26.7Q39.096 26.7 37.464 25.5Q35.832 24.3 35.472 22.068L39.432 22.068Q39.528 22.932 40.164 23.388Q40.8 23.844 41.808 23.844Q42.504 23.844 42.864 23.52Q43.224 23.196 43.224 22.668Q43.224 21.972 42.564 21.672Q41.904 21.372 40.416 21.036Q38.928 20.724 37.968 20.364Q37.008 20.004 36.312 19.2Q35.616 18.396 35.616 17.004Q35.616 15.204 36.984 14.088Q38.352 12.972 40.848 12.972ZM58.236 14.244Q56.712 12.972 54.168 12.972Q51.672 12.972 50.304 14.088Q48.936 15.204 48.936 17.004Q48.936 18.396 49.632 19.2Q50.328 20.004 51.288 20.364Q52.248 20.724 53.736 21.036Q55.224 21.372 55.884 21.672Q56.544 21.972 56.544 22.668Q56.544 23.196 56.184 23.52Q55.824 23.844 55.128 23.844Q54.12 23.844 53.484 23.388Q52.848 22.932 52.752 22.068L48.792 22.068Q49.152 24.3 50.784 25.5Q52.416 26.7 55.128 26.7Q56.736 26.7 57.912 26.196Q59.088 25.692 59.712 24.804Q60.336 23.916 60.336 22.764Q60.336 21.348 59.616 20.508Q58.896 19.668 57.912 19.296Q56.928 18.924 55.392 18.564Q53.976 18.252 53.316 17.94Q52.656 17.628 52.656 17.004Q52.656 16.452 53.016 16.152Q53.376 15.852 54.072 15.852Q54.96 15.852 55.548 16.32Q56.136 16.788 56.304 17.604L60.144 17.604Q59.76 15.516 58.236 14.244ZM68.88 12.972Q70.872 12.972 72.444 13.8Q74.016 14.628 74.916 16.188Q75.816 17.748 75.816 19.836Q75.816 21.924 74.916 23.484Q74.016 25.044 72.444 25.872Q70.872 26.7 68.88 26.7Q66.888 26.7 65.304 25.872Q63.72 25.044 62.82 23.484Q61.92 21.924 61.92 19.836Q61.92 17.748 62.82 16.188Q63.72 14.628 65.304 13.8Q66.888 12.972 68.88 12.972ZM68.88 16.524Q67.704 16.524 66.9 17.376Q66.096 18.228 66.096 19.836Q66.096 21.444 66.9 22.284Q67.704 23.124 68.88 23.124Q70.056 23.124 70.848 22.284Q71.64 21.444 71.64 19.836Q71.64 18.228 70.848 17.376Q70.056 16.524 68.88 16.524ZM23.988 17.436Q24.792 16.572 26.112 16.572Q27.408 16.572 28.236 17.448Q29.064 18.324 29.064 19.836Q29.064 21.324 28.236 22.212Q27.408 23.1 26.112 23.1Q24.792 23.1 23.988 22.236Q23.184 21.372 23.184 19.836Q23.184 18.3 23.988 17.436Z" />
  </g>
</svg>