<?xml version="1.0" encoding="utf-8"?>
<svg width="36px" height="47px" viewBox="0 0 36 47" version="1.1" xmlns:xlink="http://www.w3.org/1999/xlink" xmlns="http://www.w3.org/2000/svg">
  <desc>Created with Lunacy</desc>
  <defs>
    <filter filterUnits="userSpaceOnUse" color-interpolation-filters="sRGB" id="filter_1">
      <feFlood flood-opacity="0" result="BackgroundImageFix" />
      <feColorMatrix in="SourceAlpha" type="matrix" values="0 0 0 0 0 0 0 0 0 0 0 0 0 0 0 0 0 0 127 0" />
      <feOffset dx="4" dy="4" />
      <feGaussianBlur stdDeviation="2" />
      <feColorMatrix type="matrix" values="0 0 0 0 0.3921569 0 0 0 0 0.3921569 0 0 0 0 0.3921569 0 0 0 0.4980392 0" />
      <feBlend mode="normal" in2="BackgroundImageFix" result="effect0_dropShadow" />
      <feBlend mode="normal" in="SourceGraphic" in2="effect0_dropShadow" result="shape" />
    </filter>
    <path d="M9.90354 1.49048C10.5108 -0.541776 13.3109 -0.451363 13.8466 1.49048C17.0171 12.1834 23.7501 14.9896 23.7501 22.5296C23.7501 29.1715 18.4387 34.5457 11.8751 34.5457C5.31139 34.5457 0 29.1715 0 22.5296C0 15.0274 6.74787 12.1349 9.90354 1.49048ZM4.31824 21.1801C4.31824 25.3466 7.7087 28.7371 11.8751 28.7371C12.4715 28.7371 12.9546 28.2539 12.9546 27.6575C12.9546 27.061 12.4715 26.5779 11.8751 26.5779C8.8989 26.5779 6.47734 24.1563 6.47734 21.1801C6.47734 20.5837 5.99424 20.1006 5.39779 20.1006C4.80134 20.1006 4.31824 20.5837 4.31824 21.1801Z" transform="translate(2 2)" id="path_1" />
    <clipPath id="clip_1">
      <use xlink:href="#path_1" />
    </clipPath>
  </defs>
  <g filter="url(#filter_1)">
    <g id="Shape">
      <use stroke="none" fill="#16E67E" xlink:href="#path_1" fill-rule="evenodd" />
      <g clip-path="url(#clip_1)">
        <use xlink:href="#path_1" fill="none" stroke="#000000" stroke-width="1" />
      </g>
    </g>
  </g>
</svg>